<svg xmlns="http://www.w3.org/2000/svg" viewBox="0 0 800 560"><rect width="800" height="560" rx="32" fill="#fff5e8"/><circle cx="400" cy="260" r="175" fill="#fff"/><path d="M342 145v80c0 38 22 58 58 58s58-20 58-58v-80M342 145h-34c-30 0-46 23-46 52v23c0 34 23 55 58 55h22M458 145h34c30 0 46 23 46 52v23c0 34-23 55-58 55h-22M400 283v49c0 42 25 57 25 83" fill="none" stroke="#035b40" stroke-width="18" stroke-linecap="round"/><text x="400" y="475" text-anchor="middle" font-family="Arial" font-size="30" font-weight="700" fill="#12342a">Digestive Health</text></svg>